<?xml version="1.0" encoding="UTF-8" standalone="no"?>
<!DOCTYPE svg PUBLIC "-//W3C//DTD SVG 1.1//EN" "http://www.w3.org/Graphics/SVG/1.1/DTD/svg11.dtd">
<svg version="1.1" xmlns="http://www.w3.org/2000/svg" xmlns:xlink="http://www.w3.org/1999/xlink" preserveAspectRatio="xMidYMid meet" viewBox="0 0 640 640" width="640" height="640"><defs><path d="M-1.27 0L638.73 0L638.73 640L-1.27 640L-1.27 0Z" id="b636BqQUu"></path><path d="M103.76 484C28.32 408 87.58 275.3 281.52 85.89L173.94 85.89" id="b2tms6TZ3"></path><path d="M392.85 484L321.09 484L321.09 85.89L388.39 85.89L388.39 268.78L547.72 129.74L508.78 85.89L420.14 159.38" id="b9Y7BjOLn"></path><path d="M275.14 175.04L481.1 483.65L398.41 484L256.05 257.33L256.05 483.65L189.19 484L189.19 71.89" id="cc0iJyBRq"></path><path d="M295.74 156.76L266.74 154.09L248.4 186.43L305.74 263.76L305.74 178.76L295.74 156.76Z" id="aHUVge4xU"></path><path d="M273.86 380.99L304.07 361.94L396.78 509L366.58 528.04L273.86 380.99Z" id="c1R9V6mSa2"></path><path d="M404.59 99.84L436.41 99.84L436.41 190.93L404.59 190.93L404.59 99.84Z" id="a56ml5qnie"></path><path d="M281.52 427.39L342.76 427.39L342.76 465.39L281.52 465.39L281.52 427.39Z" id="c2Rgj0aWUt"></path><path d="M283.47 434.39L344.71 434.39L344.71 472.39L283.47 472.39L283.47 434.39Z" id="dfM8Zx0GU"></path><path d="M294.13 468.72L355.38 468.72L355.38 506.72L294.13 506.72L294.13 468.72Z" id="a1Y8nmJkgs"></path></defs><g><g><g><use xlink:href="#b636BqQUu" opacity="1" fill="#ffffff" fill-opacity="1"></use></g><g><g><g><use xlink:href="#b2tms6TZ3" opacity="1" fill-opacity="0" stroke="#900202" stroke-width="30" stroke-opacity="1"></use></g></g><g><g><use xlink:href="#b9Y7BjOLn" opacity="1" fill-opacity="0" stroke="#900202" stroke-width="30" stroke-opacity="1"></use></g></g><g><g><use xlink:href="#cc0iJyBRq" opacity="1" fill-opacity="0" stroke="#540000" stroke-width="30" stroke-opacity="1"></use></g></g><g><use xlink:href="#aHUVge4xU" opacity="1" fill="#ffffff" fill-opacity="1"></use><g><use xlink:href="#aHUVge4xU" opacity="1" fill-opacity="0" stroke="#ffffff" stroke-width="0" stroke-opacity="1"></use></g></g><g><use xlink:href="#c1R9V6mSa2" opacity="1" fill="#ffffff" fill-opacity="1"></use></g><g><use xlink:href="#a56ml5qnie" opacity="1" fill="#ffffff" fill-opacity="1"></use></g><g><use xlink:href="#c2Rgj0aWUt" opacity="1" fill="#ffffff" fill-opacity="1"></use></g><g><use xlink:href="#dfM8Zx0GU" opacity="1" fill="#ffffff" fill-opacity="1"></use></g><g><use xlink:href="#a1Y8nmJkgs" opacity="1" fill="#ffffff" fill-opacity="1"></use></g></g></g></g></svg>